<?xml version="1.0" encoding="UTF-8"?>
<!DOCTYPE svg PUBLIC "-//W3C//DTD SVG 1.1//EN" "http://www.w3.org/Graphics/SVG/1.1/DTD/svg11.dtd">
<!-- Creator: CorelDRAW -->
<svg xmlns="http://www.w3.org/2000/svg" xml:space="preserve" width="297mm" height="210mm" version="1.1" style="shape-rendering:geometricPrecision; text-rendering:geometricPrecision; image-rendering:optimizeQuality; fill-rule:evenodd; clip-rule:evenodd"
viewBox="0 0 29700 21000"
 xmlns:xlink="http://www.w3.org/1999/xlink">
 <defs>
  <style type="text/css">
   <![CDATA[
    .str2 {stroke:black;stroke-width:10;stroke-opacity:0.501961}
    .str4 {stroke:black;stroke-width:50}
    .str6 {stroke:#434242;stroke-width:10}
    .str3 {stroke:black;stroke-width:10}
    .str0 {stroke:#000066;stroke-width:10}
    .str1 {stroke:#003399;stroke-width:10}
    .str7 {stroke:#2B2A29;stroke-width:7.62}
    .str5 {stroke:black;stroke-width:7.62}
    .fil6 {fill:none}
    .fil0 {fill:#FEFEFE}
    .fil8 {fill:#D9DADA}
    .fil1 {fill:white}
    .fil5 {fill:#FEFEFE;fill-rule:nonzero}
    .fil4 {fill:#D9DADA;fill-rule:nonzero}
    .fil7 {fill:#434242;fill-rule:nonzero}
    .fil3 {fill:black;fill-rule:nonzero}
    .fil2 {fill:#FEFEFE;fill-rule:nonzero;fill-opacity:0.501961}
   ]]>
  </style>
 </defs>
 <g id="Plan_x0020_1">
  <metadata id="CorelCorpID_0Corel-Layer"/>
  <rect class="fil0" x="1000" y="1000" width="19245" height="19000"/>
  <path class="fil1 str0" d="M1000 1000l14523 0c-5,103 24,192 49,287 12,45 40,97 59,140 22,51 39,102 66,151 23,34 41,87 62,127 29,56 38,148 26,209 -5,26 -31,63 -46,87 -25,40 -16,85 -16,130 0,56 -25,107 -17,166 12,91 -42,150 -46,232 -4,96 -11,195 11,290 18,19 41,56 56,80 31,47 81,50 104,112 29,76 9,210 12,293 4,107 33,227 117,301 41,31 142,108 128,165 -11,3 -43,-46 -67,-51 -101,-21 34,108 39,118 26,53 -106,185 -143,225 -87,93 -107,251 -176,359 -25,66 -65,139 -106,197 -61,88 -85,135 -106,243 -8,41 -15,93 -15,135 0,48 -35,99 -51,147 -7,74 -75,177 -114,240 -61,99 -72,192 -93,305 -12,68 -13,145 -34,212 -12,40 0,86 -12,123 -6,21 -60,-10 -51,38 4,21 25,36 30,55 13,52 -22,152 76,152l66 8c54,7 139,90 94,140 -41,45 -85,-49 -124,-9 -9,9 -9,40 -14,53 -8,25 -65,28 -89,37l-153 39 8 35 319 -82c38,-6 62,-6 101,-17 32,-9 32,17 26,41 -8,33 -26,39 -53,58 -41,28 -15,67 -62,99 -29,20 -32,31 -45,59 -12,27 -33,26 -51,45 -25,25 -43,77 -31,111 13,36 57,18 26,79 12,67 -27,195 87,158 22,-7 35,-17 53,-30 26,-19 58,-28 89,-38 18,-6 39,-13 58,-16 21,-4 26,5 41,9 9,35 -113,75 -145,86 -37,13 -146,17 -162,49l25 86 39 -28 101 133 30 -31 41 20 -61 138 91 150 34 -14 27 47 27 -20 -69 -127 -23 -10 192 -451 57 -99 200 65 6 -22 123 48 31 -89 -182 -83 62 -303 16 11 -12 42 159 57 22 -56 -165 -108 5 -19 593 353c16,-24 81,-52 108,-77 26,-24 145,-176 183,-123 34,47 79,22 79,102 0,84 42,122 101,177 27,26 166,56 128,94l-589 467 -458 -154 -20 -23 -132 -66 -47 56 -6 -72 -84 -18 -47 112 99 38 13 -6 68 20 45 -45 96 31 8 -15 12 4 0 17 422 145 -2 34 -210 178 -30 -33 -430 -160 -24 15 -136 -59 -37 81 326 110 83 121 -422 -128 -6 57 172 62 4 27 141 66 7 60 -128 -37 -314 65 11 90 261 -39 67 24 -88 109 -149 57 20 110 94 -87 13 12 -47 60 -42 321 -8 125 46 -1 32 -232 45 5 -20 229 52 -1 34 -519 11 -39 42 -12 -11 440 -9 172 -77 52 -25 61 -117 27 -88 -62 -34 13 -12 107 -92 70 1 21 82 58 31 133 31 3 95 -57 101 2 24 -112 -43 -34 24 -64 18 -5 9 49 57 34 -1 139 -37 -6 -15 22 31 27 -207 480 -35 74 39 19 64 -122 32 16 -79 138 19 34 -14 28 -49 31 -17 35 -237 -117 -6 12 232 115 -83 107 -121 94 -17 21c-44,0 -44,-11 -53,33 -13,61 -246,215 -301,266 -115,106 -237,231 -333,359l-57 46 -152 111c-29,21 -34,67 -62,90 -38,31 -79,48 -91,101 -14,58 101,-33 121,-33 0,27 -69,160 -91,185 -77,83 -159,38 -234,97 -38,30 282,-51 166,66l-172 403 -381 -160 -18 52 126 66 -56 103 22 14 61 -111 237 121 -3 19 -241 315 -290 -184 50 -101 -78 -25 -90 132 94 231 -32 65 30 20 78 -108 -21 -20 26 -69 271 154 64 -72 21 26 -94 125 -161 178 -38 84 46 78 -42 29 -156 -164 -83 -29 -98 2 19 172 124 2 71 92 -158 147c-56,32 -37,70 -75,105 -23,21 -60,34 -88,57 -88,72 -171,186 -266,242 -89,52 -42,-94 -35,-131 8,-37 16,-81 16,-119 0,-26 -59,-48 -59,-59 61,0 87,-12 87,-74l-14 -79 -223 41 16 36 187 -16 -5 34 -162 23 -91 -55 -130 32 -35 -38 -75 11 -462 208 -99 -99 -33 55c18,62 -29,149 -51,203 -18,45 -38,95 -38,145 0,121 1,133 -65,231 -32,49 32,78 19,104 -18,35 -89,-1 -121,3 -16,4 -77,4 -69,35 84,12 57,32 -9,48 -54,13 -34,47 -44,87 -50,17 -15,81 -44,108 -61,56 -11,50 -29,101 -13,36 -65,43 -53,90 22,90 199,93 152,235 15,90 35,111 129,133 25,6 138,12 103,62 -24,35 -83,-28 -120,-4 -15,10 -15,30 -29,41 -16,12 -102,30 -36,68 26,15 190,0 129,75 -7,9 -71,31 -57,44 11,11 129,56 58,68 -67,11 -155,-50 -202,20 -52,78 -46,195 -64,285 0,97 -71,275 -131,353 -105,134 -259,31 -401,31 -16,-43 -74,-53 -72,-13 1,18 28,89 11,100 -19,12 -33,-24 -37,-37 -10,-29 -5,-52 -38,-65 -49,-19 -110,-2 -162,-5 -70,-4 -140,-36 -210,-45l-418 -48c-99,-12 -169,-72 -259,-99 -67,-20 -136,-3 -203,-13 -110,-16 -105,-79 -161,-154 -13,-30 -35,-236 -38,-239 -26,-21 -55,28 -62,48 -15,46 -37,71 -89,58 -71,-17 81,-73 80,-75 -5,-12 -26,-42 -37,-49 -32,-23 -62,2 -93,-4 -50,-10 -30,-76 16,-67 56,11 28,-3 72,-14 32,-8 69,112 88,58 13,-40 -10,-99 -22,-133 -30,0 -85,22 -120,27 -47,8 -98,-25 -143,-33 -97,-17 -221,-78 -320,-59l-355 -44 -324 -3c-123,-1 -483,27 -576,102 -68,23 -64,-22 -54,-74 8,-43 -29,-65 -57,-22 -20,30 7,81 -9,96 -59,55 -51,-15 -38,-51 21,-56 -128,30 -133,19 -49,-93 127,-107 126,-109 -9,-14 -43,-50 -58,-50 -45,0 -111,40 -148,65 -60,41 -137,47 -207,55 -198,22 -264,150 -366,298 -78,113 81,-1 109,-23 12,-10 52,-72 61,-68 58,29 -123,208 -76,223 54,16 253,-33 195,-106 -59,-74 -42,-43 -24,-130 6,-22 13,-140 45,-56 11,28 -5,58 -5,88 0,82 133,108 102,-15 -19,-75 34,-76 60,-18 14,32 9,111 -10,140 -14,22 46,52 62,11l56 -144c3,0 5,1 7,1 1,2 5,4 7,5 16,63 -50,113 -50,175 0,51 174,-29 192,-56 56,-85 16,36 78,21 30,-7 53,-64 75,-64 15,46 -60,127 -27,167 18,23 76,118 56,145 -1,0 -2,-1 -3,-1 -1,-3 -4,-3 -5,-5 -25,-6 -14,-91 -56,-106 -26,-9 -81,18 -107,25 -102,26 -269,89 -349,159l-342 215c-44,28 -156,127 -203,133 -6,25 -54,28 -20,79 8,13 55,68 52,80 -2,0 -1,0 -2,2 -28,7 -52,-12 -78,-5 -37,10 -72,32 -109,42 -96,26 -209,101 -288,159 -71,27 -131,74 -203,100 -50,18 -125,39 -159,80 -22,26 -48,92 -88,80 -68,-22 13,-64 42,-71 0,-30 48,-96 26,-113 -25,19 -78,79 -110,77 -25,-2 -5,-69 -35,-89 -27,-18 -25,-42 -1,-59 30,-21 46,36 54,52 22,46 61,-6 79,-25 47,-47 89,-18 89,-86 0,-25 6,-76 -14,-90 -40,24 -99,108 -132,58 -42,-63 70,-27 64,-79 -5,-42 21,-36 54,-47 0,-87 -92,-72 -146,-33 -73,53 -75,147 -123,217 -32,46 -54,75 -65,130 -18,94 68,80 84,129l125 167 -11 10 -101 -133 -431 159 -645 331c-129,66 -468,165 -539,267 -73,32 -149,66 -213,115 -27,21 -125,102 -154,106l-143 68 -191 150c-105,83 -254,184 -327,295 -46,46 -106,104 -138,161 -35,63 -62,56 -18,122 24,37 -16,41 -26,68 -5,13 12,26 9,38 -24,0 -42,-26 -70,-26 -30,0 -47,5 -72,16 -68,28 -109,97 -160,148 -37,37 -69,13 -92,71 -63,56 -109,49 -181,97l-203 135 -321 264c-53,43 -114,134 -171,166l-28 35 -306 372 0 -18833zm17693 5890c-18,-39 29,-79 65,-81 37,-2 67,12 96,34 27,20 80,91 35,114 -49,24 -119,-27 -166,-38l-29 -28zm-6733 8071c0,-40 -9,-82 40,-96 11,-3 24,-2 36,-2 58,0 159,-44 135,52 -7,28 -12,45 -40,59 -42,21 -97,16 -141,7l-29 -21zm2916 4209c208,0 564,29 714,191 92,99 163,-71 234,-105l126 -59c0,-24 -53,-17 -9,-61l75 -76c23,-44 39,-130 96,-144 67,-17 53,3 96,-48 24,-28 49,11 69,-14 27,-34 29,-60 78,-57 95,6 30,-92 97,-96 33,-2 69,-6 89,-35 38,-55 46,-20 87,-52l206 -163c49,-39 63,-74 63,-142l171 -259 139 -206c29,-43 104,7 122,-69 22,-95 95,-81 172,-68 36,6 94,-44 115,-31 50,31 92,26 146,12 49,-13 108,-39 148,-69 131,-88 324,-210 477,-203 131,6 494,-138 547,-266 31,-52 106,-124 150,-165 25,-23 108,-111 130,-119 49,-18 79,38 136,-1 91,-62 20,-72 -42,-60 -30,6 14,-51 5,-60 -28,-28 -57,-18 -31,-70 13,-26 44,-69 50,-94 2,0 2,-1 3,-3 2,0 2,-1 3,-2 16,0 113,12 104,-23 -70,-14 -84,-43 -103,-100 -2,0 -2,0 -4,-1 -22,17 -93,20 -120,9 -50,-20 -9,-88 -59,-94 -177,-155 -63,-345 -154,-528 -29,-59 -22,-131 -47,-181 -18,-83 3,-98 19,-163 141,-35 215,-3 318,-141 33,-44 168,-262 76,-285 -12,-48 38,-59 55,-92 23,-46 23,-107 18,-159l-14 -753c25,-280 -60,-515 -349,-609 -184,-58 -322,-55 -508,-24 -33,6 -74,-8 -102,3 -21,8 -88,87 -99,61 -11,-26 -33,-98 -12,-116 30,-25 -2,-28 -24,-36 0,-19 63,-23 75,-46 23,-46 -36,-21 -53,-11 -23,14 -26,-27 -25,-40 -17,-45 125,-108 35,-151 -32,-15 -79,-95 -89,-131 -14,-45 46,-82 39,-108 -50,-13 -76,80 -127,12 -56,-75 20,-95 -88,-90 -44,2 -66,-58 -55,-93 8,-26 106,-55 24,-67 -82,-12 -31,-125 -44,-176 20,-61 -1,-91 -67,-99 -2,-7 -74,-50 -85,-68 -20,-32 -47,-59 -66,-92 -49,-87 -86,-185 -118,-280 -19,-57 -39,-172 -75,-215 -32,-98 -91,-186 -125,-283 -33,-95 4,-175 -17,-262 -33,-8 -110,58 -99,-23 8,-57 76,-37 60,-90 -24,-65 -63,-164 -105,-218 -28,-36 10,-126 -50,-145 3,-10 64,-26 78,-31 52,-17 43,9 77,46 28,31 51,11 83,11 51,0 39,30 47,73 5,24 26,47 42,64 24,27 -6,45 -1,75 6,39 82,30 85,0 4,-37 -49,-48 -37,-98 8,-31 -13,-81 40,-94 18,-4 154,47 146,8 -11,-58 -165,-29 -68,-91 35,-43 98,-52 135,-103 24,-34 20,-73 28,-111 13,-60 122,-134 82,-188l-100 -135c-60,-81 -62,-72 -168,-50 -89,18 -66,211 -175,154 -70,-37 -83,49 -135,63 -61,16 -12,-75 -2,-97 29,-62 28,-104 -2,-165l199 -86 -148 -322 -173 90 -176 101 -88 121 173 388 60 119 127 147 -30 58 -97 23 -87 -110 -104 -196 -194 -380 -27 -85 181 -208 452 -291 -120 -204 -215 114 -21 -45 -47 -5 -23 42 6 45 -16 8 -14 -35 -313 149 -58 -40 -132 3 -8 -82 275 -60 5 48 16 -8 -12 -87 193 -36 8 -55 -160 -36 16 -32 156 47 30 -119 58 -40 147 -110 -43 -184 -179 -21 -173 -27 -436 30 -46 31 147 80 -16 48 -92 -16 -90 -112 -27 122 84 28 -16 74 -78 -13 -38 112 161 58 -9 17 -136 -38 -20 103 150 43 -13 39 -140 -39 -8 26 118 49c16,16 54,17 45,54 -6,25 -16,57 -37,74 -66,53 -73,-9 -73,-74 0,-57 -7,-71 -62,-29 -52,39 -16,42 9,84 -10,25 -36,86 -36,112 0,60 29,63 -16,125 -67,92 126,73 182,87 0,2 0,1 2,2 14,57 8,177 -7,236 -10,38 -7,81 -19,120 -8,26 -23,49 -35,73 -26,54 -64,141 -107,183 -8,-10 43,-120 53,-140 27,-52 -36,-45 5,-99 36,-82 60,-237 29,-322 -13,-35 -35,-20 -67,-26 -60,-11 -42,-46 -105,0 -51,37 -109,-94 -146,38 -14,33 -56,141 -37,174 6,11 64,67 8,67 -19,0 -42,-23 -61,-16 -25,9 -28,68 -39,90 -10,18 -39,25 -45,40 -5,12 4,53 -4,55 -2,7 -75,-1 -92,3 -26,6 -69,49 -89,67 -54,48 -229,166 -249,228 -74,66 -157,127 -218,207l-220 284c-35,45 -124,140 -141,193 -75,77 -182,215 -182,323 0,39 -50,25 -66,58l-87 173c-14,29 -63,176 -57,203l-282 621c-19,31 -37,68 -51,101 -11,26 -13,57 -28,80 -20,31 -9,121 -55,101 -66,-29 -19,17 -5,43 11,21 5,27 5,48 -107,0 -13,66 -88,104l-722 697 -347 486 -231 331 -279 390 -182 296c5,28 -12,90 -17,122 -30,177 28,343 28,521 21,40 20,122 28,169 35,202 21,437 133,620 35,46 53,121 80,173 91,173 184,367 298,525 174,229 241,626 564,702 134,16 237,45 377,7l517 -141 54 312c14,64 37,144 26,212 -7,47 -6,97 -6,145 0,37 2,76 27,104 13,14 106,-96 93,-9 -12,76 -12,147 43,209 77,154 267,287 443,299l46 14zm3101 -7450c-79,-79 -151,-200 -216,-292 -49,-69 -123,-205 -141,-281 -13,0 -63,96 -62,112 2,29 37,61 39,94 13,35 44,97 69,125 22,23 11,68 12,99 3,76 73,34 114,71 44,41 70,101 118,143 76,100 55,223 -59,283 -85,45 -5,125 40,167 33,30 82,69 122,84 69,26 25,-54 16,-83 -26,-86 -5,-199 39,-276 19,-33 68,-123 9,-147l-91 -87 -9 -14z"/>
  <path class="fil0 str1" d="M8901 1000l-1679 0c6,1 20,39 36,47 40,20 62,15 96,49 41,41 69,130 89,183 30,75 64,155 104,225 113,157 105,443 289,543 215,117 431,67 662,113 139,31 301,25 439,-19 125,-40 258,43 362,-16 3,-22 -17,-40 -9,-58 7,-17 39,-21 41,-33 26,-17 44,-153 57,-186 44,-82 -35,-288 -94,-352 -105,-113 -196,-223 -329,-312l-65 -184zm-3334 2045c135,47 651,142 443,-135 -56,-74 69,-118 23,-148l-238 -156c-60,-40 -104,-8 -168,-16 -71,-8 -146,-44 -208,-76 -126,-66 -326,-118 -452,-10 -79,68 -25,119 -14,196 10,5 19,36 37,46 42,32 71,60 82,113 13,63 18,126 34,189 27,33 45,107 96,66 28,-23 57,-41 95,-34 59,12 78,47 115,-27 30,-61 65,-39 115,-23l41 15zm4510 -225c-84,0 -218,36 -287,-4 -45,-26 -117,-86 -172,-54 -63,36 -53,-9 -104,-19 -25,-5 -44,8 -69,-4 -25,-12 -30,-43 -58,-54 -33,-13 -62,1 -93,-4 -42,-6 -52,-38 -80,-61 -74,-63 -180,-45 -129,66 2,2 7,6 8,9 10,5 35,52 45,64 43,53 86,48 125,122 52,99 168,105 245,181 94,94 139,-69 213,-101 15,12 12,41 29,49 41,19 80,-18 74,49 -5,57 60,83 82,138l83 203c97,111 180,65 308,47 46,-7 86,-19 129,-33 54,-18 53,-57 53,-102 -12,-39 -72,-65 -99,-95 -24,-26 15,-51 -3,-80 -42,-67 -11,-139 62,-156 21,-5 55,4 73,-5 98,-54 -144,-87 -160,-95 -33,-18 -57,-34 -97,-31 -34,2 -76,-39 -105,-29l-71 -1zm1281 72c-23,84 10,179 -93,220 -87,35 -197,-114 -268,-158 -96,-61 -186,4 -265,-31 -38,-17 -61,-84 -89,-116 -21,-25 -89,-30 -120,-27 -4,0 -4,0 -7,-1 -2,6 -33,-6 -33,-16 32,-8 55,-7 82,-32 21,-20 29,-49 51,-68 28,-24 64,35 114,-16 90,-90 107,25 176,59 35,17 69,-12 111,18 48,34 91,-31 118,-62 24,-22 106,-137 144,-84 19,27 28,61 55,82 47,38 58,70 70,128 9,44 87,105 -20,105l-27 -2zm1960 1973c-25,-118 -109,-209 -115,-331 -1,-32 -19,-68 -19,-98 -2,-1 -2,-2 -5,-2 -6,24 -63,103 -47,122 23,29 41,55 29,93 -10,34 -40,35 -55,60 -19,32 -2,81 5,114 14,36 10,68 16,106 5,33 16,47 29,76 20,43 12,106 51,134 54,39 126,21 144,-48 14,-52 -7,-136 -14,-191l-20 -37zm-1978 2598c-6,-26 -13,-53 -11,-80 2,-21 18,-27 37,-20 22,8 43,47 45,69 2,29 -20,59 -53,48l-17 -17zm358 -118c-9,-13 -15,-39 -12,-55 4,-18 8,-20 26,-20 31,0 52,17 52,48 0,31 -19,62 -54,53l-13 -27zm1062 -328c-43,0 -84,13 -126,13 -27,0 -35,-22 -58,-27 -67,-17 -87,127 -130,108 -28,-13 -22,-69 -54,-79 -18,-6 -117,13 -134,25 -74,48 -144,100 -198,171 -85,67 -219,-78 -255,75 -29,126 -73,208 -225,184 -91,-15 -125,110 -222,121 -49,6 -97,3 -139,36 -20,22 -70,96 -101,85 0,-31 35,-95 42,-134 16,-94 120,-110 120,-204 0,-103 61,-77 121,-101 48,-19 83,-65 142,-56 23,4 61,23 82,19 49,-9 77,-28 130,-28 63,0 25,-62 21,-98 -4,-19 -20,-76 4,-87 18,-8 44,42 57,53 24,20 119,-29 153,-38 46,-13 81,6 132,-17 71,-32 141,-3 214,-34 57,-24 101,-70 127,-126 16,-35 33,-76 59,-102 1,-1 133,-9 135,19 4,50 -119,149 26,149 37,-14 78,-1 116,-15 57,-21 111,-52 149,12 23,40 -115,58 -136,62l-53 16zm981 -215c-8,-17 -9,-65 7,-79 21,-17 47,0 72,-31 12,-14 44,-38 64,-29 23,11 22,21 52,17 22,-2 49,-11 71,-5 44,12 36,30 -5,36 -48,6 -97,-6 -120,51 -14,33 -86,49 -116,39l-26 0zm742 11c-18,-39 52,-90 86,-71 18,10 21,19 12,37 -11,23 -49,42 -73,42l-25 -8zm-3837 3625c-2,-1 -3,-1 -5,-2 -7,-27 -34,-56 -43,-87 -22,-76 -20,-157 -47,-232 -21,-56 -43,-126 -79,-175 -24,-31 106,-66 133,-71 84,-16 163,209 202,266 57,86 114,114 204,54 214,-143 29,175 -31,231 -101,95 -185,98 -304,45l-30 -29zm4207 -1408c-160,176 -335,335 -430,557 -28,67 -82,137 -103,203 -46,85 -55,181 -71,273 -14,80 10,197 -31,268 -7,12 -109,75 -112,74 -21,-87 15,-215 28,-304 16,-111 35,-229 68,-334 42,-40 69,-143 102,-196 126,-201 254,-384 424,-556 40,-78 92,-160 157,-219l156 -144c36,-33 52,-1 56,39 7,78 -78,110 -123,162 -42,47 -71,108 -108,159l-13 20zm1704 -1826l39 -90 127 48 -35 90 -131 -48zm489 1656l-1 -206 163 9 41 165 -97 69 -107 -37zm-633 704c-18,-25 -3,-56 5,-84 8,-31 13,-44 44,-34 23,7 18,27 17,47 -1,13 -2,31 5,43 7,13 21,36 21,50 0,24 -38,21 -53,16l-38 -37zm13 617c100,-66 105,-320 105,-430 0,-18 5,-120 -3,-131 -1,0 -2,1 -3,1 -17,69 -94,120 -38,196 41,56 -22,93 -47,138 -18,32 10,66 25,96 20,42 -61,51 -80,70 -18,40 7,86 -5,127 -17,56 -46,17 -81,39 -40,25 -15,156 -81,170 -28,6 -61,-17 -89,-1 -57,33 -32,137 -109,95 -56,-30 -70,-14 -103,34 -52,75 -192,22 -80,153 49,58 320,-174 375,-218 65,-51 204,-217 214,-301l2 -38zm-1181 610c-32,-26 -3,-117 39,-71 26,28 66,101 109,51 41,-47 65,-16 91,25 36,55 58,24 85,-12 32,-42 40,-16 72,-1 45,21 78,-134 122,-54 47,85 -109,115 -165,122 -90,12 -217,-19 -305,-41l-49 -19zm-962 2233c-1,-2 -4,-6 -6,-6 -48,-84 -10,-74 57,-110 75,-40 137,-70 223,-59 44,62 -189,167 -232,177l-41 -2zm-223 -22c0,-2 -1,-6 -2,-6 7,-53 15,-68 59,-101 33,-25 72,-57 115,-47 4,16 -16,40 -25,53 -32,44 -50,122 -117,122l-31 -21zm-1718 3428c-11,-7 -27,-27 -32,-39 -7,-17 4,-23 9,-39 7,-25 -22,-112 4,-122 33,-12 60,120 67,142 10,31 67,80 0,88l-47 -29zm1244 971c-13,34 46,155 -26,82 -74,-74 -20,76 -22,94 -4,36 19,38 47,55 36,22 -40,94 -40,111 0,47 110,23 124,91 17,84 -28,154 -114,163 -120,11 -252,7 -357,-58 -163,-103 -229,-240 -320,-399 -25,-51 -5,-106 -12,-157 -63,-42 -109,1 -148,-90 -37,-87 -63,-165 -114,-247 -20,-32 -50,-112 -79,-132 -15,-40 -28,-93 -56,-124 -31,-35 -41,-76 -24,-122 -14,-24 -26,-39 -59,-33 -19,-27 -15,-95 28,-97 39,-2 35,13 66,27 46,22 74,30 86,88 6,28 19,52 30,77 12,27 44,66 44,95 24,3 105,171 124,203 43,71 -30,193 95,208 47,66 29,96 115,113 39,8 108,116 110,152 41,38 113,170 182,101 29,-29 6,-96 -1,-131 -11,-56 17,-81 40,-127 15,-9 44,-37 58,-51 19,-17 42,-36 47,-63 7,-34 6,-115 46,-128 10,-3 19,12 25,18 39,39 110,-8 99,85 -7,52 10,95 10,149l-4 48zm-7312 -1377c10,-19 54,-115 25,-133 -43,-26 -64,-12 -106,-53 -24,-24 -58,-23 -90,-25 -40,-2 -57,-31 -89,-47 -56,-28 -73,83 -127,83 -33,0 -49,43 -37,69 11,27 21,103 -26,52 -36,-38 -50,-58 -80,7 -16,35 -116,82 -41,82 21,0 39,-18 50,-18 0,89 -84,38 -5,143 9,43 16,104 67,118 87,24 127,-88 212,-104 109,-21 140,-66 214,-140l33 -36zm203 -560c4,-19 2,-32 -3,-50 -32,-11 -124,90 -143,122 -40,65 -102,73 -140,139 -40,5 -119,12 -127,62 -4,30 102,36 130,46 44,15 79,25 109,60 72,84 105,31 193,-21 74,-44 378,-149 287,-271 -25,-33 -108,-18 -144,-11 -75,16 -80,12 -136,-37l-26 -37zm2098 -560c-282,0 -581,-55 -861,-15 -70,10 -137,54 -199,63 -4,4 -2,2 -11,5 -37,26 -82,-55 -78,-86 10,-91 360,-193 413,-127 -6,13 6,93 21,100 56,25 -9,-124 104,-113l358 35c41,4 30,105 67,95 47,-13 2,-90 131,-90 68,21 138,10 207,23 51,10 17,44 41,70 21,24 20,-59 20,-66 132,-33 280,36 413,36 129,0 153,16 159,147 1,13 15,70 -7,64 -75,-20 -140,-62 -222,-75 -96,-16 -197,-15 -289,-44 -35,-11 -67,-5 -102,-5 -43,0 -79,-15 -120,-15l-44 -4zm-3581 -1677c-82,-89 59,-157 132,-175 68,-16 143,-62 207,-92 56,-27 76,-14 89,51 14,71 -118,137 -173,160 -65,27 -163,80 -232,80l-23 -25zm9 -472c-27,-27 -79,-89 -36,-119 35,-24 61,58 117,45 25,-6 42,-28 64,-41 33,-21 65,42 96,-11 66,-114 100,-72 144,23 20,43 49,169 -41,112 -46,-29 -78,-63 -134,-70 -31,-4 -61,10 -70,40 -11,36 18,38 -13,73 -32,36 -77,-2 -105,-22l-22 -30z"/>
  <polygon class="fil2 str2" points="16643,1231 19660,1231 19660,2824 16643,2824 "/>
  <path class="fil3" d="M17981 1571l0 24 -31 0 0 62 -29 0 0 -62 -98 0 0 -22 108 -155 19 0 0 152 31 0zm-60 0l0 -116 -82 116 82 0z"/>
  <path id="1" class="fil3" d="M18139 1412l0 157 40 -37c9,-8 13,-13 15,-15 1,-1 1,-3 1,-4 0,-2 -1,-4 -3,-6 -2,-2 -5,-3 -9,-3l0 -6 69 0 0 6c-9,0 -17,2 -23,4 -6,3 -13,7 -21,14l-41 37 40 51c11,14 19,23 23,27 6,5 10,9 15,10 3,1 8,2 15,2l0 6 -77 0 0 -6c4,0 7,-1 9,-2 2,-1 2,-3 2,-5 0,-3 -2,-7 -7,-13l-48 -62 0 52c0,10 1,17 2,20 1,3 3,5 6,7 3,1 8,2 17,2l0 6 -80 0 0 -6c8,0 14,-1 18,-3 2,-1 4,-3 5,-6 2,-4 3,-10 3,-20l0 -144c0,-18 0,-29 -1,-33 -1,-4 -2,-7 -4,-8 -2,-2 -4,-2 -7,-2 -2,0 -6,1 -11,3l-3 -6 47 -19 8 0z"/>
  <path id="2" class="fil3" d="M18316 1529c11,-12 18,-18 20,-20 5,-4 11,-8 17,-10 6,-2 12,-4 18,-4 10,0 18,3 25,9 7,6 12,14 14,25 12,-14 22,-23 30,-27 8,-4 17,-6 25,-6 8,0 16,2 22,6 6,4 12,11 15,21 3,7 4,17 4,31l0 68c0,10 1,17 2,20 1,2 3,5 6,6 3,2 8,3 15,3l0 6 -77 0 0 -6 3 0c7,0 12,-1 16,-4 3,-2 5,-5 6,-9 0,-2 1,-7 1,-17l0 -68c0,-13 -2,-22 -5,-27 -5,-7 -12,-11 -22,-11 -6,0 -12,2 -18,5 -6,3 -14,9 -22,17l0 2 1 7 0 75c0,11 1,17 2,20 1,3 3,5 7,7 3,2 9,3 17,3l0 6 -79 0 0 -6c9,0 15,-1 18,-3 3,-2 5,-5 7,-9 1,-2 1,-8 1,-17l0 -68c0,-13 -2,-22 -6,-28 -5,-7 -12,-11 -21,-11 -6,0 -12,2 -18,5 -9,5 -17,11 -22,17l0 85c0,10 1,17 2,20 1,3 4,5 6,7 3,2 8,2 17,2l0 6 -78 0 0 -6c7,0 12,-1 15,-2 3,-2 5,-4 7,-7 1,-3 2,-10 2,-20l0 -60c0,-17 -1,-28 -2,-34 -1,-4 -2,-6 -4,-8 -2,-1 -4,-2 -7,-2 -3,0 -7,1 -12,3l-3 -6 48 -19 7 0 0 34z"/>
  <path class="fil3" d="M17737 2582l-16 45 -138 0 0 -6c41,-37 69,-67 86,-91 17,-23 25,-45 25,-64 0,-15 -5,-27 -14,-37 -9,-10 -20,-14 -33,-14 -12,0 -22,3 -31,10 -9,7 -16,16 -20,29l-6 0c3,-21 10,-37 22,-49 12,-11 27,-17 45,-17 19,0 35,6 48,18 13,12 19,27 19,43 0,12 -3,24 -8,36 -8,19 -22,38 -41,59 -29,31 -46,50 -53,56l60 0c12,0 21,0 26,-1 5,-1 9,-3 13,-6 4,-3 7,-7 10,-12l7 0z"/>
  <path id="1" class="fil3" d="M17898 2498c11,-12 18,-18 20,-20 5,-4 11,-8 17,-10 6,-2 12,-4 18,-4 10,0 18,3 25,9 7,6 12,14 14,25 12,-14 22,-23 30,-27 8,-4 17,-6 25,-6 8,0 16,2 22,6 6,4 12,11 15,21 3,7 4,17 4,31l0 68c0,10 1,17 2,20 1,2 3,5 6,6 3,2 8,3 15,3l0 6 -77 0 0 -6 3 0c7,0 12,-1 16,-4 3,-2 5,-5 6,-9 0,-2 1,-7 1,-17l0 -68c0,-13 -2,-22 -5,-27 -5,-7 -12,-11 -22,-11 -6,0 -12,2 -18,5 -6,3 -14,9 -22,17l0 2 1 7 0 75c0,11 1,17 2,20 1,3 3,5 7,7 3,2 9,3 17,3l0 6 -79 0 0 -6c9,0 15,-1 18,-3 3,-2 5,-5 7,-9 1,-2 1,-8 1,-17l0 -68c0,-13 -2,-22 -6,-28 -5,-7 -12,-11 -21,-11 -6,0 -12,2 -18,5 -9,5 -17,11 -22,17l0 85c0,10 1,17 2,20 1,3 4,5 6,7 3,2 8,2 17,2l0 6 -78 0 0 -6c7,0 12,-1 15,-2 3,-2 5,-4 7,-7 1,-3 2,-10 2,-20l0 -60c0,-17 -1,-28 -2,-34 -1,-4 -2,-6 -4,-8 -2,-1 -4,-2 -7,-2 -3,0 -7,1 -12,3l-3 -6 48 -19 7 0 0 34z"/>
  <path id="2" class="fil3" d="M18166 2382c5,0 9,2 12,5 3,3 5,8 5,12 0,5 -2,9 -5,12 -3,3 -8,5 -12,5 -5,0 -9,-2 -12,-5 -3,-3 -5,-8 -5,-12 0,-5 2,-9 5,-12 3,-3 8,-5 13,-5zm14 83l0 127c0,10 1,16 2,20 1,3 4,6 6,7 3,2 8,2 15,2l0 6 -77 0 0 -6c8,0 13,-1 15,-2 3,-1 5,-4 6,-7 2,-3 2,-10 2,-20l0 -61c0,-17 -1,-28 -2,-33 -1,-4 -2,-6 -4,-8 -2,-1 -4,-2 -7,-2 -3,0 -7,1 -12,3l-2 -6 47 -19 8 0z"/>
  <path class="fil3" d="M19829 2958c0,-17 4,-34 13,-51 9,-17 22,-30 38,-39 17,-9 34,-14 52,-14 18,0 35,5 52,14 17,9 29,22 39,38 9,17 14,34 14,52 0,18 -5,35 -14,52 -9,17 -22,29 -39,39 -17,9 -34,14 -52,14 -18,0 -35,-5 -52,-14 -17,-9 -30,-22 -38,-39 -9,-17 -13,-34 -13,-51zm17 0c0,15 4,29 11,43 7,14 18,25 32,32 14,8 28,12 43,12 15,0 29,-4 43,-12 14,-8 24,-18 32,-32 8,-14 12,-28 12,-43 0,-15 -4,-29 -12,-43 -8,-14 -18,-25 -32,-32 -14,-8 -28,-11 -43,-11 -15,0 -30,4 -43,12 -14,8 -25,19 -32,32 -7,14 -11,28 -11,43zm104 -33l5 -17c12,3 21,9 28,18 7,9 10,20 10,33 0,16 -5,29 -16,39 -10,10 -25,15 -44,15 -12,0 -23,-2 -32,-7 -9,-5 -16,-11 -20,-20 -5,-9 -7,-18 -7,-29 0,-12 3,-22 9,-30 6,-8 14,-14 24,-17l4 16c-7,3 -12,7 -16,12 -4,5 -6,12 -6,19 0,11 4,19 11,26 8,7 18,10 32,10 14,0 25,-3 32,-10 7,-6 11,-15 11,-25 0,-8 -2,-16 -7,-22 -5,-6 -11,-10 -20,-12z"/>
  <path id="1" class="fil3" d="M20034 2663l-19 0c14,9 22,23 22,41 0,12 -3,22 -10,32 -6,10 -15,17 -27,23 -12,5 -25,8 -40,8 -15,0 -28,-2 -40,-7 -12,-5 -21,-12 -27,-22 -6,-10 -10,-21 -10,-33 0,-9 2,-17 6,-24 4,-7 9,-12 15,-17l-73 0 0 -25 202 0 0 23zm-73 78c19,0 33,-4 42,-12 9,-8 14,-17 14,-28 0,-11 -4,-20 -13,-28 -9,-8 -22,-11 -41,-11 -20,0 -35,4 -44,12 -9,8 -14,17 -14,29 0,11 4,20 13,28 9,7 23,11 42,11z"/>
  <polygon id="2" class="fil3" points="19973,2611 19949,2611 19949,2534 19973,2534 "/>
  <path id="3" class="fil3" d="M20034 2507l-146 0 0 -22 21 0c-7,-5 -13,-11 -17,-18 -4,-8 -7,-16 -7,-26 0,-11 2,-20 7,-27 5,-7 11,-12 19,-15 -17,-12 -26,-27 -26,-45 0,-15 4,-26 12,-34 8,-8 20,-12 37,-12l100 0 0 25 -92 0c-10,0 -17,1 -21,2 -4,2 -8,5 -11,9 -3,4 -4,9 -4,15 0,10 3,19 10,26 7,7 18,10 33,10l85 0 0 25 -95 0c-11,0 -19,2 -25,6 -6,4 -8,11 -8,20 0,7 2,13 6,19 4,6 9,10 16,13 7,3 17,4 31,4l76 0 0 25z"/>
  <path id="4" class="fil3" d="M20016 2176c8,9 13,18 17,27 3,9 5,18 5,27 0,16 -4,28 -12,37 -8,9 -18,13 -30,13 -7,0 -14,-2 -20,-5 -6,-3 -11,-8 -14,-13 -4,-5 -6,-11 -8,-18 -1,-5 -2,-12 -4,-22 -2,-20 -5,-35 -9,-44 -3,0 -6,0 -6,0 -10,0 -17,2 -21,7 -6,6 -8,16 -8,28 0,12 2,20 6,26 4,6 11,10 22,12l-3 24c-10,-2 -19,-6 -25,-11 -6,-5 -11,-12 -15,-22 -3,-10 -5,-21 -5,-33 0,-13 1,-23 4,-31 3,-8 7,-14 11,-17 4,-4 10,-6 17,-8 4,-1 12,-1 23,-1l33 0c23,0 38,-1 44,-2 6,-1 12,-3 18,-6l0 26c-5,3 -11,4 -18,5zm-55 2c4,9 7,23 9,41 1,10 3,17 5,22 2,4 5,7 8,10 4,2 7,3 12,3 7,0 12,-2 16,-8 4,-5 7,-12 7,-22 0,-10 -2,-18 -6,-26 -4,-7 -10,-13 -17,-16 -6,-3 -14,-4 -25,-4l-9 0z"/>
  <path id="5" class="fil3" d="M20090 2115l-203 0 0 -23 19 0c-7,-5 -13,-11 -17,-18 -4,-7 -6,-15 -6,-24 0,-13 3,-24 10,-33 6,-10 15,-17 27,-22 12,-5 25,-7 38,-7 15,0 28,3 40,8 12,5 21,13 28,23 6,10 10,21 10,32 0,8 -2,16 -5,22 -3,7 -8,12 -13,16l71 0 0 25zm-129 -23c19,0 33,-4 42,-11 9,-8 13,-17 13,-28 0,-11 -5,-20 -14,-28 -9,-8 -24,-12 -43,-12 -19,0 -33,4 -42,11 -9,8 -14,17 -14,27 0,11 5,20 15,28 10,8 24,12 43,12z"/>
  <path id="6" class="fil3" d="M19990 1968l-4 -25c10,-1 17,-5 23,-12 5,-6 8,-15 8,-26 0,-11 -2,-20 -7,-25 -5,-6 -10,-8 -16,-8 -6,0 -10,3 -13,7 -2,3 -5,12 -8,25 -5,18 -9,31 -12,38 -3,7 -8,12 -14,16 -6,4 -12,5 -20,5 -7,0 -13,-2 -18,-4 -6,-3 -10,-7 -14,-12 -3,-4 -5,-9 -7,-16 -2,-7 -3,-14 -3,-21 0,-11 2,-22 5,-30 3,-9 8,-15 13,-19 6,-4 13,-7 23,-9l3 24c-8,1 -14,4 -18,10 -4,5 -6,13 -6,22 0,11 2,19 6,24 4,5 8,7 13,7 3,0 6,-1 9,-3 3,-2 5,-5 7,-10 1,-3 3,-10 6,-22 5,-18 9,-30 11,-37 3,-7 7,-12 13,-16 6,-4 13,-6 21,-6 8,0 16,2 23,7 7,5 13,12 17,21 4,9 6,19 6,31 0,19 -4,34 -12,44 -8,10 -20,16 -35,19z"/>
  <polygon id="7" class="fil3" points="20034,1809 20006,1809 20006,1781 20034,1781 "/>
  <path id="8" class="fil3" d="M19980 1642l3 -24c17,3 30,9 39,20 9,11 14,24 14,40 0,20 -7,36 -20,48 -13,12 -32,18 -56,18 -16,0 -30,-3 -41,-8 -12,-5 -21,-13 -27,-24 -6,-11 -9,-22 -9,-35 0,-16 4,-29 12,-39 8,-10 19,-17 34,-19l4 24c-10,2 -17,6 -22,12 -5,6 -7,13 -7,21 0,13 4,23 13,31 9,8 23,12 42,12 20,0 34,-4 43,-11 9,-8 13,-17 13,-29 0,-10 -3,-18 -9,-24 -6,-7 -15,-11 -27,-12z"/>
  <path id="9" class="fil3" d="M19961 1606c-27,0 -47,-8 -60,-23 -11,-13 -16,-28 -16,-46 0,-20 7,-37 20,-49 13,-13 31,-19 55,-19 19,0 34,3 44,8 11,6 19,14 25,25 6,11 9,23 9,35 0,21 -7,37 -20,50 -13,13 -32,19 -57,19zm0 -25c19,0 33,-4 42,-12 9,-8 14,-19 14,-31 0,-12 -5,-23 -14,-31 -9,-8 -24,-12 -43,-12 -18,0 -32,4 -41,12 -9,8 -14,18 -14,31 0,12 5,23 14,31 9,8 23,12 42,12z"/>
  <path id="10" class="fil3" d="M20034 1440l-146 0 0 -22 21 0c-7,-5 -13,-11 -17,-18 -4,-8 -7,-16 -7,-26 0,-11 2,-20 7,-27 5,-7 11,-12 19,-15 -17,-12 -26,-27 -26,-45 0,-15 4,-26 12,-34 8,-8 20,-12 37,-12l100 0 0 25 -92 0c-10,0 -17,1 -21,2 -4,2 -8,5 -11,9 -3,4 -4,9 -4,15 0,10 3,19 10,26 7,7 18,10 33,10l85 0 0 25 -95 0c-11,0 -19,2 -25,6 -6,4 -8,11 -8,20 0,7 2,13 6,19 4,6 9,10 16,13 7,3 17,4 31,4l76 0 0 25z"/>
  <g id="_2508234393200">
   <polygon class="fil4 str3" points="16790,1828 17478,1828 17478,1927 16790,1927 "/>
   <polygon class="fil5 str3" points="17478,1828 18166,1828 18166,1927 17478,1927 "/>
   <polygon class="fil4 str3" points="18166,1828 18855,1828 18855,1927 18166,1927 "/>
   <polygon class="fil5 str3" points="18855,1828 19543,1828 19543,1927 18855,1927 "/>
   <polygon class="fil4 str3" points="17893,2127 18994,2127 18994,2226 17893,2226 "/>
   <polygon class="fil5 str3" points="16793,2127 17893,2127 17893,2226 16793,2226 "/>
  </g>
  <rect class="fil6 str4" x="1000" y="1000" width="19245" height="19000"/>
  <g id="_2508234388464">
   <polygon class="fil2 str2" points="1268,1239 2084,1239 2084,2832 1268,2832 "/>
   <path class="fil7" d="M1616 1676c-1,3 -2,6 -2,9 0,3 -1,5 -1,7 0,6 2,10 5,12 3,2 10,3 18,3l4 0 -5 23 -78 0 5 -23 3 0c7,0 13,-2 16,-5 4,-3 6,-8 8,-16l38 -154c1,-3 1,-6 2,-8 0,-3 1,-6 1,-9 0,-5 -2,-9 -6,-11 -4,-2 -11,-3 -20,-3l-3 0 5 -23 72 0 62 184 31 -129c1,-4 2,-8 2,-10 0,-3 1,-5 1,-6 0,-6 -2,-10 -5,-12 -4,-2 -10,-3 -18,-3l-4 0 5 -23 79 0 -6 23 -3 0c-7,0 -13,2 -16,5 -4,3 -6,8 -8,16l-51 208 -22 0 -72 -209 -37 155z"/>
   <line class="fil6 str5" x1="1676" y1="2699" x2="1676" y2= "1930" />
   <line class="fil6 str5" x1="1394" y1="2423" x2="1957" y2= "2423" />
   <line class="fil6 str5" x1="1531" y1="2563" x2="1826" y2= "2276" />
   <line class="fil6 str5" x1="1528" y1="2276" x2="1826" y2= "2565" />
   <line class="fil6 str5" x1="1676" y1="1933" x2="1581" y2= "2051" />
   <line class="fil6 str5" x1="1677" y1="1933" x2="1765" y2= "2051" />
  </g>
  <g id="_2508234384016">
   <polygon class="fil2 str2" points="5154,1239 5154,1713 2844,1713 2844,1239 "/>
   <path class="fil7" d="M3922 1578l0 -202 40 0 48 143c4,13 8,23 10,30 2,-7 6,-18 11,-32l49 -141 36 0 0 202 -26 0 0 -169 -59 169 -24 0 -58 -172 0 172 -26 0z"/>
   <path id="1" class="fil7" d="M4254 1531l26 3c-4,15 -11,27 -22,35 -11,8 -25,12 -42,12 -21,0 -38,-7 -51,-20 -13,-13 -19,-32 -19,-55 0,-25 6,-44 19,-57 13,-14 29,-20 49,-20 20,0 35,7 48,20 12,13 19,32 19,56 0,1 0,4 0,7l-109 0c1,16 5,28 14,37 8,9 18,13 31,13 9,0 17,-2 23,-7 6,-5 12,-12 15,-23zm-81 -40l82 0c-1,-12 -4,-22 -9,-28 -8,-10 -18,-14 -31,-14 -11,0 -21,4 -29,11 -8,8 -12,18 -13,31z"/>
   <path id="2" class="fil7" d="M4311 1578l0 -146 22 0 0 22c6,-10 11,-17 16,-21 5,-3 10,-5 16,-5 8,0 17,3 26,8l-9 23c-6,-3 -12,-5 -18,-5 -5,0 -10,2 -15,5 -4,3 -7,8 -9,14 -3,9 -4,18 -4,29l0 77 -25 0z"/>
   <path id="3" class="fil7" d="M4501 1524l24 3c-3,17 -9,30 -20,39 -11,9 -24,14 -40,14 -20,0 -36,-7 -48,-20 -12,-13 -18,-32 -18,-56 0,-16 3,-30 8,-41 5,-12 13,-21 24,-27 11,-6 22,-9 35,-9 16,0 29,4 39,12 10,8 17,19 19,34l-24 4c-2,-10 -6,-17 -12,-22 -6,-5 -13,-7 -21,-7 -13,0 -23,4 -31,13 -8,9 -12,23 -12,42 0,20 4,34 11,43 8,9 17,13 29,13 10,0 18,-3 24,-9 7,-6 11,-15 12,-27z"/>
   <path id="4" class="fil7" d="M4642 1560c-9,8 -18,13 -27,17 -9,3 -18,5 -27,5 -16,0 -28,-4 -37,-12 -9,-8 -13,-18 -13,-30 0,-7 2,-14 5,-20 3,-6 8,-11 13,-14 5,-4 11,-6 18,-8 5,-1 12,-2 22,-4 20,-2 35,-5 44,-9 0,-3 0,-6 0,-6 0,-10 -2,-17 -7,-21 -6,-6 -16,-8 -28,-8 -12,0 -20,2 -26,6 -6,4 -10,11 -12,22l-24 -3c2,-10 6,-19 11,-25 5,-6 12,-11 22,-15 10,-3 21,-5 33,-5 13,0 23,1 31,4 8,3 14,7 17,11 4,4 6,10 8,17 1,4 1,12 1,23l0 33c0,23 1,38 2,44 1,6 3,12 6,18l-26 0c-3,-5 -4,-11 -5,-18zm-2 -55c-9,4 -23,7 -41,9 -10,1 -17,3 -22,5 -4,2 -7,5 -10,8 -2,4 -3,7 -3,12 0,7 2,12 8,16 5,4 12,7 22,7 10,0 18,-2 26,-6 7,-4 13,-10 16,-17 3,-6 4,-14 4,-25l0 -9z"/>
   <path id="5" class="fil7" d="M4757 1556l3 22c-7,1 -13,2 -19,2 -9,0 -16,-1 -21,-4 -5,-3 -8,-7 -10,-11 -2,-5 -3,-14 -3,-29l0 -84 -18 0 0 -19 18 0 0 -36 25 -15 0 51 25 0 0 19 -25 0 0 86c0,7 0,12 1,14 1,2 2,4 4,5 2,1 5,2 8,2 3,0 6,0 11,-1z"/>
   <path id="6" class="fil7" d="M4772 1505c0,-27 8,-47 23,-60 13,-11 28,-16 46,-16 20,0 37,7 49,20 13,13 19,31 19,55 0,19 -3,34 -8,44 -6,11 -14,19 -25,25 -11,6 -23,9 -35,9 -21,0 -37,-7 -50,-20 -13,-13 -19,-32 -19,-57zm25 0c0,19 4,33 12,42 8,9 19,14 31,14 12,0 23,-5 31,-14 8,-9 12,-24 12,-43 0,-18 -4,-32 -12,-41 -8,-9 -18,-14 -31,-14 -12,0 -23,5 -31,14 -8,9 -12,23 -12,42z"/>
   <path id="7" class="fil7" d="M4938 1578l0 -146 22 0 0 22c6,-10 11,-17 16,-21 5,-3 10,-5 16,-5 8,0 17,3 26,8l-9 23c-6,-3 -12,-5 -18,-5 -5,0 -10,2 -15,5 -4,3 -7,8 -9,14 -3,9 -4,18 -4,29l0 77 -25 0z"/>
   <circle class="fil8 str6" cx="3063" cy="1473" r="119"/>
   <rect class="fil8 str6" x="3521" y="1364" width="227" height="227"/>
   <line class="fil6 str7" x1="3237" y1="1472" x2="3457" y2= "1472" />
   <line class="fil6 str7" x1="3454" y1="1472" x2="3390" y2= "1538" />
   <line class="fil6 str7" x1="3454" y1="1471" x2="3391" y2= "1410" />
  </g>
 </g>
</svg>
